REM DIRINDEX 1\5,1\2\6,1\2\7,1\3\8,1\3\9,1\4\10,1\4\11,1\4\12
REM DIRNAME folder01,folder02,folder03,folder04,folder05,folder06,folder07,folder08,folder09,folder10,folder11,folder12
TITLE ""
FILE "EJE_DB3000_5th_6C_41.mp3" MP3
  TRACK 01 AUDIO
    TITLE "0:"
    INDEX 01 00:00:00
  TRACK 02 AUDIO
    TITLE "10:cjc026_11739"
    INDEX 01 00:00:05
  TRACK 03 AUDIO
    TITLE "0:"
    INDEX 01 00:00:68
  TRACK 04 AUDIO
    TITLE "11:cjc026_11740"
    INDEX 01 00:01:19
  TRACK 05 AUDIO
    TITLE "0:"
    INDEX 01 00:02:22
  TRACK 06 AUDIO
    TITLE "12:cjc026_11741"
    INDEX 01 00:02:47
  TRACK 07 AUDIO
    TITLE "0:"
    INDEX 01 00:03:33
  TRACK 08 AUDIO
    TITLE "10:cjc026_11742"
    INDEX 01 00:03:59
  TRACK 09 AUDIO
    TITLE "0:"
    INDEX 01 00:04:50
  TRACK 10 AUDIO
    TITLE "11:cjc026_11743"
    INDEX 01 00:05:01
  TRACK 11 AUDIO
    TITLE "0:"
    INDEX 01 00:05:71
  TRACK 12 AUDIO
    TITLE "12:cjc026_11744"
    INDEX 01 00:06:22
  TRACK 13 AUDIO
    TITLE "0:"
    INDEX 01 00:07:11
  TRACK 14 AUDIO
    TITLE "10:cjc026_11745"
    INDEX 01 00:07:39
  TRACK 15 AUDIO
    TITLE "0:"
    INDEX 01 00:08:32
  TRACK 16 AUDIO
    TITLE "11:cjc026_11746"
    INDEX 01 00:08:56
  TRACK 17 AUDIO
    TITLE "0:"
    INDEX 01 00:09:61
  TRACK 18 AUDIO
    TITLE "12:cjc026_11747"
    INDEX 01 00:10:12
  TRACK 19 AUDIO
    TITLE "0:"
    INDEX 01 00:11:05
  TRACK 20 AUDIO
    TITLE "10:cjc026_11748"
    INDEX 01 00:11:33
  TRACK 21 AUDIO
    TITLE "0:"
    INDEX 01 00:12:34
  TRACK 22 AUDIO
    TITLE "11:cjc026_11749"
    INDEX 01 00:12:63
  TRACK 23 AUDIO
    TITLE "0:"
    INDEX 01 00:14:04
  TRACK 24 AUDIO
    TITLE "12:cjc026_11750"
    INDEX 01 00:14:29
  TRACK 25 AUDIO
    TITLE "0:"
    INDEX 01 00:15:32
  TRACK 26 AUDIO
    TITLE "10:cjc026_11751"
    INDEX 01 00:15:60
  TRACK 27 AUDIO
    TITLE "0:"
    INDEX 01 00:16:53
  TRACK 28 AUDIO
    TITLE "11:cjc026_11752"
    INDEX 01 00:17:04
  TRACK 29 AUDIO
    TITLE "0:"
    INDEX 01 00:18:13
  TRACK 30 AUDIO
    TITLE "12:cjc026_11753"
    INDEX 01 00:18:39
  TRACK 31 AUDIO
    TITLE "0:"
    INDEX 01 00:19:34
  TRACK 32 AUDIO
    TITLE "10:cjc026_11754"
    INDEX 01 00:19:62
  TRACK 33 AUDIO
    TITLE "0:"
    INDEX 01 00:20:55
  TRACK 34 AUDIO
    TITLE "11:cjc026_11755"
    INDEX 01 00:21:06
  TRACK 35 AUDIO
    TITLE "0:"
    INDEX 01 00:22:13
  TRACK 36 AUDIO
    TITLE "12:cjc026_11756"
    INDEX 01 00:22:40
  TRACK 37 AUDIO
    TITLE "0:"
    INDEX 01 00:23:34
  TRACK 38 AUDIO
    TITLE "10:cjc026_11757"
    INDEX 01 00:23:59
  TRACK 39 AUDIO
    TITLE "0:"
    INDEX 01 00:24:59
  TRACK 40 AUDIO
    TITLE "11:cjc026_11758"
    INDEX 01 00:25:09
  TRACK 41 AUDIO
    TITLE "0:"
    INDEX 01 00:26:22
  TRACK 42 AUDIO
    TITLE "12:cjc026_11759"
    INDEX 01 00:26:48
  TRACK 43 AUDIO
    TITLE "0:"
    INDEX 01 00:27:47
  TRACK 44 AUDIO
    TITLE "10:cjc026_11760"
    INDEX 01 00:27:73
  TRACK 45 AUDIO
    TITLE "0:"
    INDEX 01 00:28:66
  TRACK 46 AUDIO
    TITLE "11:cjc026_11761"
    INDEX 01 00:29:17
  TRACK 47 AUDIO
    TITLE "0:"
    INDEX 01 00:30:38
  TRACK 48 AUDIO
    TITLE "12:cjc026_11762"
    INDEX 01 00:30:61
  TRACK 49 AUDIO
    TITLE "0:"
    INDEX 01 00:31:53
  TRACK 50 AUDIO
    TITLE "10:cjc026_11763"
    INDEX 01 00:32:03
  TRACK 51 AUDIO
    TITLE "0:"
    INDEX 01 00:32:68
  TRACK 52 AUDIO
    TITLE "11:cjc026_11764"
    INDEX 01 00:33:21
  TRACK 53 AUDIO
    TITLE "0:"
    INDEX 01 00:34:61
  TRACK 54 AUDIO
    TITLE "12:cjc026_11765"
    INDEX 01 00:35:12
  TRACK 55 AUDIO
    TITLE "0:"
    INDEX 01 00:36:01
  TRACK 56 AUDIO
    TITLE "10:cjc026_11766"
    INDEX 01 00:36:27
  TRACK 57 AUDIO
    TITLE "0:"
    INDEX 01 00:37:24
  TRACK 58 AUDIO
    TITLE "11:cjc026_11767"
    INDEX 01 00:37:48
  TRACK 59 AUDIO
    TITLE "0:"
    INDEX 01 00:38:61
  TRACK 60 AUDIO
    TITLE "12:cjc026_11768"
    INDEX 01 00:39:11
  TRACK 61 AUDIO
    TITLE "0:"
    INDEX 01 00:40:07
  TRACK 62 AUDIO
    TITLE "10:cjc026_11769"
    INDEX 01 00:40:32
  TRACK 63 AUDIO
    TITLE "0:"
    INDEX 01 00:41:22
  TRACK 64 AUDIO
    TITLE "11:cjc026_11770"
    INDEX 01 00:41:47
  TRACK 65 AUDIO
    TITLE "0:"
    INDEX 01 00:42:57
  TRACK 66 AUDIO
    TITLE "12:cjc026_11771"
    INDEX 01 00:43:07
  TRACK 67 AUDIO
    TITLE "0:"
    INDEX 01 00:43:72
  TRACK 68 AUDIO
    TITLE "10:cjc026_11772"
    INDEX 01 00:44:24
  TRACK 69 AUDIO
    TITLE "0:"
    INDEX 01 00:45:10
  TRACK 70 AUDIO
    TITLE "11:cjc026_11773"
    INDEX 01 00:45:35
  TRACK 71 AUDIO
    TITLE "0:"
    INDEX 01 00:46:43
  TRACK 72 AUDIO
    TITLE "12:cjc026_11774"
    INDEX 01 00:46:70
  TRACK 73 AUDIO
    TITLE "0:"
    INDEX 01 00:47:58
  TRACK 74 AUDIO
    TITLE "10:cjc026_11775"
    INDEX 01 00:48:08
  TRACK 75 AUDIO
    TITLE "0:"
    INDEX 01 00:49:04
  TRACK 76 AUDIO
    TITLE "11:cjc026_11776"
    INDEX 01 00:49:27
  TRACK 77 AUDIO
    TITLE "0:"
    INDEX 01 00:50:19
  TRACK 78 AUDIO
    TITLE "12:cjc026_11777"
    INDEX 01 00:50:44
  TRACK 79 AUDIO
    TITLE "0:"
    INDEX 01 00:51:38
  TRACK 80 AUDIO
    TITLE "10:cjc026_11778"
    INDEX 01 00:51:63
  TRACK 81 AUDIO
    TITLE "0:"
    INDEX 01 00:52:53
  TRACK 82 AUDIO
    TITLE "11:cjc026_11779"
    INDEX 01 00:53:04
  TRACK 83 AUDIO
    TITLE "0:"
    INDEX 01 00:54:11
  TRACK 84 AUDIO
    TITLE "12:cjc026_11780"
    INDEX 01 00:54:36
  TRACK 85 AUDIO
    TITLE "0:"
    INDEX 01 00:55:26
